<svg width="100" height="99" viewBox="0 0 100 99" fill="none" xmlns="http://www.w3.org/2000/svg">
    <path d="M97.4734 14.5182L52.5959 94.7671C51.6693 96.4239 49.2888 96.4337 48.3483 94.7849L2.5809 14.5259C1.55631 12.7292 3.09273 10.5528 5.1288 10.9167L50.0544 18.9469C50.341 18.9982 50.6344 18.9977 50.921 18.9455L94.9071 10.9283C96.9363 10.5584 98.48 12.7179 97.4734 14.5182Z" fill="url(#paint0_linear_6_16)"/>
    <path d="M71.4549 0.383992L38.2441 6.8915C37.6983 6.99846 37.2941 7.46104 37.2612 8.01619L35.2183 42.5195C35.1702 43.3322 35.9166 43.9629 36.7098 43.78L45.9561 41.6461C46.8212 41.4466 47.6029 42.2085 47.4251 43.0785L44.678 56.5305C44.4932 57.4358 45.3432 58.21 46.2273 57.9415L51.9383 56.2063C52.8237 55.9376 53.6744 56.7139 53.4871 57.62L49.1215 78.75C48.8483 80.0717 50.6063 80.7924 51.3395 79.6593L51.8293 78.9024L78.8912 24.8956C79.3444 23.9913 78.5629 22.9602 77.5698 23.1519L68.0522 24.9888C67.1578 25.1612 66.3968 24.3283 66.6493 23.4532L72.8612 1.91875C73.1139 1.04222 72.3502 0.208573 71.4549 0.383992Z" fill="url(#paint1_linear_6_16)"/>
    <defs>
    <linearGradient id="paint0_linear_6_16" x1="1.46346" y1="8.04877" x2="57.3171" y2="83.9025" gradientUnits="userSpaceOnUse">
    <stop stop-color="#41D1FF"/>
    <stop offset="1" stop-color="#BD34FE"/>
    </linearGradient>
    <linearGradient id="paint1_linear_6_16" x1="47.4759" y1="2.15077" x2="57.5795" y2="71.4607" gradientUnits="userSpaceOnUse">
    <stop stop-color="#FFEA83"/>
    <stop offset="0.0833333" stop-color="#FFDD35"/>
    <stop offset="1" stop-color="#FFA800"/>
    </linearGradient>
    </defs>
    </svg>